/* XPM */
static char *pixil_frame_0__6_1696797065[] = {
/* columns rows colors chars-per-pixel */
"64 64 11 1 ",
"  c None",
". c #353535",
"X c #727272",
"o c gray47",
"O c gray59",
"+ c #989898",
"@ c gray66",
"# c #ACCCD5",
"$ c #D8D8D8",
"% c #DDF3F5",
"& c white",
/* pixels */
"                                                                ",
"                                                                ",
"                                                                ",
"                                                                ",
"                                                                ",
"                                                                ",
"                                                                ",
"                                                                ",
"                                                                ",
"                     .....................                      ",
"                     .....................                      ",
"                     .....................                      ",
"              .......ooooooo++++++++++++++.......               ",
"              .......ooooooo++++++++++++++.......               ",
"              .......ooooooo++++++++++++++.......               ",
"           ...oooo###%%%%&&&&&&&&&&%%%%%%%####ooo....           ",
"           ...oooo###%%%%&&&&&&&&&&%%%%%%%####ooo....           ",
"           ...oooo###%%%%&&&&&&&&&&%%%%%%%####ooo....           ",
"           ...####&&&&&&&&&&&&&&&&&&&&&&&&&&&&###....           ",
"           ...####&&&&&&&&&&&&&&&&&&&&&&&&&&&&###....           ",
"           ...####&&&&&&&&&&&&&&&&&&&&&&&&&&&&###....           ",
"           ...####&&&&&&&&&&&&&&&&&&&&&&&&&&&&###....           ",
"           ..........####%%%%%%%&&&&&&&###...........           ",
"           ..........####%%%%%%%&&&&&&&###...........           ",
"           ..........####%%%%%%%&&&&&&&###...........           ",
"           ...$$$$$$$.....................XXXXOOO....           ",
"           ...$$$$$$$.....................XXXXOOO....           ",
"           ...$$$$$$$.....................XXXXOOO....           ",
"           ...$$$$$$$$$$$$$$@@@@@@@OOOOXXXXXXXOOO....           ",
"           ...$$$$$$$$$$$$$$@@@@@@@OOOOXXXXXXXOOO....           ",
"           ...$$$$$$$$$$$$$$@@@@@@@OOOOXXXXXXXOOO....           ",
"           ...$$$$$$$&&&&$$$@@@@@@@OOOOXXXXXXX@@@....           ",
"           ...$$$$$$$&&&&$$$@@@@@@@OOOOXXXXXXX@@@....           ",
"           ...$$$$$$$&&&&$$$@@@@@@@OOOOXXXXXXX@@@....           ",
"           ...@@@@$$$&&&&$$$@@@@@@@OOOOXXXXXXX@@@....           ",
"           ...@@@@$$$&&&&$$$@@@@@@@OOOOXXXXXXX@@@....           ",
"           ...@@@@$$$&&&&$$$@@@@@@@OOOOXXXXXXX@@@....           ",
"           ...oooo$$$&&&&$$$@@@@@@@OOOOXXXXXXXOOO....           ",
"           ...oooo$$$&&&&$$$@@@@@@@OOOOXXXXXXXOOO....           ",
"           ...oooo$$$&&&&$$$@@@@@@@OOOOXXXXXXXOOO....           ",
"              ....$$$$$$$$$$@@@@@@@OOOOXXXOOOO...               ",
"              ....$$$$$$$$$$@@@@@@@OOOOXXXOOOO...               ",
"              ....$$$$$$$$$$@@@@@@@OOOOXXXOOOO...               ",
"              ....$$$$$$$$$$@@@@@@@OOOOXXXOOOO...               ",
"              ....@@@$$$$$$$@@@@OOOOOOOXXXOOOO...               ",
"              ....@@@$$$$$$$@@@@OOOOOOOXXXOOOO...               ",
"              ....@@@$$$$$$$@@@@OOOOOOOXXXOOOO...               ",
"                  ...@@@@$$$@@@@OOOXXXXOOO....                  ",
"                  ...@@@@$$$@@@@OOOXXXXOOO....                  ",
"                  ...@@@@$$$@@@@OOOXXXXOOO....                  ",
"                     .....................                      ",
"                     .....................                      ",
"                     .....................                      ",
"                                                                ",
"                                                                ",
"                                                                ",
"                                                                ",
"                                                                ",
"                                                                ",
"                                                                ",
"                                                                ",
"                                                                ",
"                                                                ",
"                                                                "
};
