/* XPM */
static char *pixil_frame_0__8_1696857040[] = {
/* columns rows colors chars-per-pixel */
"64 64 7 1 ",
"  c None",
". c #522900",
"X c #663300",
"o c #804000",
"O c #996633",
"+ c gray80",
"@ c white",
/* pixels */
"             oooooooooooooooooooooooooooooooooooooooo           ",
"             oooooooooooooooooooooooooooooooooooooooo           ",
"             oooooooooooooooooooooooooooooooooooooooo           ",
"             oooooooooooooooooooooooooooooooooooooooo           ",
"             ooooo@@@@@+++++oooooooooo@@@@@+++++ooooo           ",
"             ooooo@@@@@+++++oooooooooo@@@@@+++++ooooo           ",
"             ooooo@@@@@+++++oooooooooo@@@@@+++++ooooo           ",
"             ooooo@@@@@+++++oooooooooo@@@@@+++++ooooo           ",
"             ooooo@@@@@@@@@@oooooooooo@@@@@@@@@@ooooo           ",
"             ooooo@@@@@@@@@@oooooooooo@@@@@@@@@@ooooo           ",
"             ooooo@@@@@@@@@@oooooooooo@@@@@@@@@@ooooo           ",
"             ooooo@@@@@@@@@@oooooooooo@@@@@@@@@@ooooo           ",
"             oooooooooooooooooooooooooooooooooooooooo           ",
"             oooooooooooooooooooooooooooooooooooooooo           ",
"             oooooooooooooooooooooooooooooooooooooooo           ",
"             oooooooooooooooooooooooooooooooooooooooo           ",
"             ooooo@@@@@+++++oooooooooo@@@@@+++++ooooo           ",
"             ooooo@@@@@+++++oooooooooo@@@@@+++++ooooo           ",
"             ooooo@@@@@+++++oooooooooo@@@@@+++++ooooo           ",
"             ooooo@@@@@+++++oooooooooo@@@@@+++++ooooo           ",
"             ooooo@@@@@@@@@@oooooooooo@@@@@@@@@@ooooo           ",
"             ooooo@@@@@@@@@@oooooooooo@@@@@@@@@@ooooo           ",
"             ooooo@@@@@@@@@@oooooooooo@@@@@@@@@@ooooo           ",
"             ooooo@@@@@@@@@@oooooooooo@@@@@@@@@@ooooo           ",
"             oooooooooooooooooooooooooooooooooooooooo           ",
"             oooooooooooooooooooooooooooooooooooooooo           ",
"             oooooooooooooooooooooooooooooooooooooooo           ",
"             oooooooooooooooooooooooooooooooooooooooo           ",
"             oooooooooooooooooooooooooooooooooooooooo           ",
"             oooooooooooooooooooooooooooooooooooooooo           ",
"             oooooooooooooooooooooooooooooooooooooooo           ",
"             oooooooooooooooooooooooooooooooooooooooo           ",
"             oooooOOOOOXXXXXoooooooooo..........ooooo           ",
"             oooooOOOOOXXXXXoooooooooo..........ooooo           ",
"             oooooOOOOOXXXXXoooooooooo..........ooooo           ",
"             oooooOOOOOXXXXXoooooooooo..........ooooo           ",
"             oooooXXXXXXXXXXoooooooooo.....XXXXXooooo           ",
"             oooooXXXXXXXXXXoooooooooo.....XXXXXooooo           ",
"             oooooXXXXXXXXXXoooooooooo.....XXXXXooooo           ",
"             oooooXXXXXXXXXXoooooooooo.....XXXXXooooo           ",
"             oooooooooooooooooooooooooooooooooooooooo           ",
"             oooooooooooooooooooooooooooooooooooooooo           ",
"             oooooooooooooooooooooooooooooooooooooooo           ",
"             oooooooooooooooooooooooooooooooooooooooo           ",
"             oooooooooooooooooooooooooooooooooooooooo           ",
"             oooooooooooooooooooooooooooooooooooooooo           ",
"             oooooooooooooooooooooooooooooooooooooooo           ",
"             oooooooooooooooooooooooooooooooooooooooo           ",
"             oooooOOOOOXXXXXooooooooooOOOOOXXXXXooooo           ",
"             oooooOOOOOXXXXXooooooooooOOOOOXXXXXooooo           ",
"             oooooOOOOOXXXXXooooooooooOOOOOXXXXXooooo           ",
"             oooooOOOOOXXXXXooooooooooOOOOOXXXXXooooo           ",
"             oooooXXXXXXXXXXooooooooooXXXXXXXXXXooooo           ",
"             oooooXXXXXXXXXXooooooooooXXXXXXXXXXooooo           ",
"             oooooXXXXXXXXXXooooooooooXXXXXXXXXXooooo           ",
"             oooooXXXXXXXXXXooooooooooXXXXXXXXXXooooo           ",
"             oooooooooooooooooooooooooooooooooooooooo           ",
"             oooooooooooooooooooooooooooooooooooooooo           ",
"             oooooooooooooooooooooooooooooooooooooooo           ",
"             oooooooooooooooooooooooooooooooooooooooo           ",
"             oooooooooooooooooooooooooooooooooooooooo           ",
"             oooooooooooooooooooooooooooooooooooooooo           ",
"             oooooooooooooooooooooooooooooooooooooooo           ",
"             oooooooooooooooooooooooooooooooooooooooo           "
};
