/* XPM */
static char *pixil_frame_0__7_1696856805[] = {
/* columns rows colors chars-per-pixel */
"64 64 7 1 ",
"  c black",
". c gray13",
"X c gray26",
"o c gray34",
"O c gray38",
"+ c gray46",
"@ c gray62",
/* pixels */
"o@@++++++++++++++++++++++++OO  OOO@@++++++++++++++++++++++++OO  ",
"o@@++++++++++++++++++++++++OO  OOO@@++++++++++++++++++++++++OO  ",
"@OOOOOOOOOOOOOOOOOOOOOOOOOO++..@@@OOOOOOOOOOOOOOOOOOOOOOOOOO++..",
"@OOOOOOOOOOOOOOOOOOOOOOOOOO++..@@@OOOOOOOOOOOOOOOOOOOOOOOOOO++..",
"+OOOOOOOOOOOOOOOOOOOOOOOOOOOO..+++OOOOOOOOOOOOOOOOOOOOOOOOOOOO..",
"+OOOOOOOOOOOOOOOOOOOOOOOOOOOO..+++OOOOOOOOOOOOOOOOOOOOOOOOOOOO..",
"+OOOOOOOOOOOOOOOOOOOOOOOOOOXX..+++OOOOOOOOOOOOOOOOOOOOOOOOOOXX..",
"+OOOOOOOOOOOOOOOOOOOOOOOOOOXX..+++OOOOOOOOOOOOOOOOOOOOOOOOOOXX..",
"+OOOOOOOOOOOOOOOOOOOOOOOOOOXX..+++OOOOOOOOOOOOOOOOOOOOOOOOOOXX..",
"+OOOOOOOOOOOOOOOOOOOOOOOOOOXX..+++OOOOOOOOOOOOOOOOOOOOOOOOOOXX..",
"+OOOOOOOOOOOOOOOOOOOOOOOOOOXX..+++OOOOOOOOOOOOOOOOOOOOOOOOOOXX..",
"+OOOOOOOOOOOOOOOOOOOOOOOOOOXX..+++OOOOOOOOOOOOOOOOOOOOOOOOOOXX..",
"+OOOOOOOOOOOOOOOOOOOOOOOOOOXX..+++OOOOOOOOOOOOOOOOOOOOOOOOOOXX..",
"+OOOOOOOOOOOOOOOOOOOOOOOOOOXX..+++OOOOOOOOOOOOOOOOOOOOOOOOOOXX..",
"+OOOOOOOOOOOOOOOOOOOOOOOOOOXX..+++OOOOOOOOOOOOOOOOOOOOOOOOOOXX..",
"+OOOOOOOOOOOOOOOOOOOOOOOOOOXX..+++OOOOOOOOOOOOOOOOOOOOOOOOOOXX..",
"+OOOOOOOOOOOOOOOOOOOOOOOOOOXX..+++OOOOOOOOOOOOOOOOOOOOOOOOOOXX..",
"+OOOOOOOOOOOOOOOOOOOOOOOOOOXX..+++OOOOOOOOOOOOOOOOOOOOOOOOOOXX..",
"+OOOOOOOOOOOOOOOOOOOOOOOOOOXX..+++OOOOOOOOOOOOOOOOOOOOOOOOOOXX..",
"+OOOOOOOOOOOOOOOOOOOOOOOOOOXX..+++OOOOOOOOOOOOOOOOOOOOOOOOOOXX..",
"+OOOOOOOOOOOOOOOOOOOOOOOOOOXX..+++OOOOOOOOOOOOOOOOOOOOOOOOOOXX..",
"+OOOOOOOOOOOOOOOOOOOOOOOOOOXX..+++OOOOOOOOOOOOOOOOOOOOOOOOOOXX..",
"+OOOOOOOOOOOOOOOOOOOOOOOOOOXX..+++OOOOOOOOOOOOOOOOOOOOOOOOOOXX..",
"+OOOOOOOOOOOOOOOOOOOOOOOOOOXX..+++OOOOOOOOOOOOOOOOOOOOOOOOOOXX..",
"+OOOOOOOOOOOOOOOOOOOOOOOOOOXX..+++OOOOOOOOOOOOOOOOOOOOOOOOOOXX..",
"+OOOOOOOOOOOOOOOOOOOOOOOOOOXX..+++OOOOOOOOOOOOOOOOOOOOOOOOOOXX..",
"+OOOOOOOOOOOOOOOOOOOOOOOOOOXX..+++OOOOOOOOOOOOOOOOOOOOOOOOOOXX..",
"+OOOOOOOOOOOOOOOOOOOOOOOOOOXX..+++OOOOOOOOOOOOOOOOOOOOOOOOOOXX..",
"O++OOXXXXXXXXXXXXXXXXXXXXXX..  OOO++OOXXXXXXXXXXXXXXXXXXXXXX..  ",
"O++OOXXXXXXXXXXXXXXXXXXXXXX..  OOO++OOXXXXXXXXXXXXXXXXXXXXXX..  ",
" ..........................       ..........................    ",
" ..........................       ..........................    ",
"O@@++++++++++++++++++++++++OO  OOO@@++++++++++++++++++++++++OO  ",
"O@@++++++++++++++++++++++++OO  OOO@@++++++++++++++++++++++++OO  ",
"@OOOOOOOOOOOOOOOOOOOOOOOOOO++..@@@OOOOOOOOOOOOOOOOOOOOOOOOOO++..",
"@OOOOOOOOOOOOOOOOOOOOOOOOOO++..@@@OOOOOOOOOOOOOOOOOOOOOOOOOO++..",
"+OOOOOOOOOOOOOOOOOOOOOOOOOOOO..+++OOOOOOOOOOOOOOOOOOOOOOOOOOOO..",
"+OOOOOOOOOOOOOOOOOOOOOOOOOOOO..+++OOOOOOOOOOOOOOOOOOOOOOOOOOOO..",
"+OOOOOOOOOOOOOOOOOOOOOOOOOOXX..+++OOOOOOOOOOOOOOOOOOOOOOOOOOXX..",
"+OOOOOOOOOOOOOOOOOOOOOOOOOOXX..+++OOOOOOOOOOOOOOOOOOOOOOOOOOXX..",
"+OOOOOOOOOOOOOOOOOOOOOOOOOOXX..+++OOOOOOOOOOOOOOOOOOOOOOOOOOXX..",
"+OOOOOOOOOOOOOOOOOOOOOOOOOOXX..+++OOOOOOOOOOOOOOOOOOOOOOOOOOXX..",
"+OOOOOOOOOOOOOOOOOOOOOOOOOOXX..+++OOOOOOOOOOOOOOOOOOOOOOOOOOXX..",
"+OOOOOOOOOOOOOOOOOOOOOOOOOOXX..+++OOOOOOOOOOOOOOOOOOOOOOOOOOXX..",
"+OOOOOOOOOOOOOOOOOOOOOOOOOOXX..+++OOOOOOOOOOOOOOOOOOOOOOOOOOXX..",
"+OOOOOOOOOOOOOOOOOOOOOOOOOOXX..+++OOOOOOOOOOOOOOOOOOOOOOOOOOXX..",
"+OOOOOOOOOOOOOOOOOOOOOOOOOOXX..+++OOOOOOOOOOOOOOOOOOOOOOOOOOXX..",
"+OOOOOOOOOOOOOOOOOOOOOOOOOOXX..+++OOOOOOOOOOOOOOOOOOOOOOOOOOXX..",
"+OOOOOOOOOOOOOOOOOOOOOOOOOOXX..+++OOOOOOOOOOOOOOOOOOOOOOOOOOXX..",
"+OOOOOOOOOOOOOOOOOOOOOOOOOOXX..+++OOOOOOOOOOOOOOOOOOOOOOOOOOXX..",
"+OOOOOOOOOOOOOOOOOOOOOOOOOOXX..+++OOOOOOOOOOOOOOOOOOOOOOOOOOXX..",
"+OOOOOOOOOOOOOOOOOOOOOOOOOOXX..+++OOOOOOOOOOOOOOOOOOOOOOOOOOXX..",
"+OOOOOOOOOOOOOOOOOOOOOOOOOOXX..+++OOOOOOOOOOOOOOOOOOOOOOOOOOXX..",
"+OOOOOOOOOOOOOOOOOOOOOOOOOOXX..+++OOOOOOOOOOOOOOOOOOOOOOOOOOXX..",
"+OOOOOOOOOOOOOOOOOOOOOOOOOOXX..+++OOOOOOOOOOOOOOOOOOOOOOOOOOXX..",
"+OOOOOOOOOOOOOOOOOOOOOOOOOOXX..+++OOOOOOOOOOOOOOOOOOOOOOOOOOXX..",
"+OOOOOOOOOOOOOOOOOOOOOOOOOOXX..+++OOOOOOOOOOOOOOOOOOOOOOOOOOXX..",
"+OOOOOOOOOOOOOOOOOOOOOOOOOOXX..+++OOOOOOOOOOOOOOOOOOOOOOOOOOXX..",
"+OOOOOOOOOOOOOOOOOOOOOOOOOOXX..+++OOOOOOOOOOOOOOOOOOOOOOOOOOXX..",
"+OOOOOOOOOOOOOOOOOOOOOOOOOOXX..+++OOOOOOOOOOOOOOOOOOOOOOOOOOXX..",
"O++OOXXXXXXXXXXXXXXXXXXXXXX..  OOO++OOXXXXXXXXXXXXXXXXXXXXXX..  ",
"O++OOXXXXXXXXXXXXXXXXXXXXXX..  OOO++OOXXXXXXXXXXXXXXXXXXXXXX..  ",
" ..........................       ..........................    ",
" ..........................       ..........................    "
};
