/* XPM */
static char *pixil_frame_0__3_1696796149[] = {
/* columns rows colors chars-per-pixel */
"64 64 6 1 ",
"  c None",
". c #090300",
"X c #613D24",
"o c #8D5524",
"O c #C68642",
"+ c white",
/* pixels */
"                                                                ",
"                                                                ",
"                                                                ",
"                                                                ",
"                                                                ",
"                                                                ",
"                                                                ",
"                                                                ",
"                                                                ",
"                                                                ",
"                                                                ",
"                                                                ",
"                                                                ",
"                             XXXXXXXXX           XXXXXXXXX      ",
"                             XXXXXXXXX           XXXXXXXXX      ",
"                          XXXXXXOOOXXXXXX      XXXXXOOOXXX      ",
"                          XXXXXXOOOXXXXXX      XXXXXOOOXXX      ",
"XXXXXXXXX                 XXXOOO+++OOOXXXXXXXXXXXOOO+++XXX      ",
"XXXXXXXXX                 XXXOOO+++OOOXXXXXXXXXXXOOO+++XXX      ",
"XXX+++XXX                 XXXoooOOOOOOoooOOOoooOOoooOOOXXXXXX   ",
"XXX+++XXX                 XXXoooOOOOOOoooOOOoooOOoooOOOXXXXXX   ",
"XXX+++XXX                 XXXoooOOOOOOoooOOOoooOOoooOOOXXXXXX   ",
"XXXOOOXXX              XXXXXXOOOOOOOOOOOOOOOoooOOOOOOOOOOOXXXXXX",
"XXXOOOXXX              XXXXXXOOOOOOOOOOOOOOOoooOOOOOOOOOOOXXXXXX",
"XXXoooXXXXXX           XXXooooooOOOoooOOOOOOOOOOOoooOOOoooXXX   ",
"XXXoooXXXXXX           XXXooooooOOOoooOOOOOOOOOOOoooOOOoooXXX   ",
"XXXXXXOOOXXXXXXXXXXXXXXXXXOOOOOOOOO...OOOOOOOOOOO...OOOOOOXXXXXX",
"XXXXXXOOOXXXXXXXXXXXXXXXXXOOOOOOOOO...OOOOOOOOOOO...OOOOOOXXXXXX",
"   XXXXXXoooOOOooOOOoooOOOooooooOOOOOOOOO+++OOO++OOOOOOoooXXX   ",
"   XXXXXXoooOOOooOOOoooOOOooooooOOOOOOOOO+++OOO++OOOOOOoooXXX   ",
"      XXXXXXXXXXXOOOoooOOOOOOOOOOOOOOOOOOOOO+++OOOOOOOOOOOXXXXXX",
"      XXXXXXXXXXXOOOoooOOOOOOOOOOOOOOOOOOOOO+++OOOOOOOOOOOXXXXXX",
"               XXOOOOOOOOOOOOoooOOOOOOOOOOOOOOOOOOOOOOOXXXXXX   ",
"               XXOOOOOOOOOOOOoooOOOOOOOOOOOOOOOOOOOOOOOXXXXXX   ",
"               XXOOOOOOOOOOOOoooOOOOOOOOOOOOOOOOOOOOOOOXXXXXX   ",
"               XXOOOOOOOOOOOOOOOOOOOOOOOOOOOOOOOOOOOXXXXXX      ",
"               XXOOOOOOOOOOOOOOOOOOOOOOOOOOOOOOOOOOOXXXXXX      ",
"               XXOOOOOOOOOOOOOOOOOOOOOOOOOOOOOOOOOOOXXX         ",
"               XXOOOOOOOOOOOOOOOOOOOOOOOOOOOOOOOOOOOXXX         ",
"               XXOOOOOOOOOOOOOOOOOOOOOOOOOOOOOOOOOOOXXX         ",
"               XXOOOOOOOOOOOOOOOOOOOOOOOOOOOOOOOOOOOXXX         ",
"               XXOOOOOOOOOOOOOOOOOOOOOOOO++++++OOOOOXXX         ",
"               XXOOOOOOOOOOOOOOOOOOOOOOOO++++++OOOOOXXX         ",
"               XXOOOOOOOOO++++++++++++OOO++++++OO+++XXX         ",
"               XXOOOOOOOOO++++++++++++OOO++++++OO+++XXX         ",
"               XXXXXOOOOOOXXXOOOOOOXXXOOOXXXXXXOOXXXXXX         ",
"               XXXXXOOOOOOXXXOOOOOOXXXOOOXXXXXXOOXXXXXX         ",
"               XXXXXOOOOOOXXXOOOOOOXXXOOOXXXXXXOOXXXXXX         ",
"               XXXXX+++XXXXXX+++XXXXXX+++XXXXXX++XXXXXX         ",
"               XXXXX+++XXXXXX+++XXXXXX+++XXXXXX++XXXXXX         ",
"                 XXXXXXXXXXXXXXXXXXXXXXXXXXXXXXXXXXX            ",
"                 XXXXXXXXXXXXXXXXXXXXXXXXXXXXXXXXXXX            ",
"                                                                ",
"                                                                ",
"                                                                ",
"                                                                ",
"                                                                ",
"                                                                ",
"                                                                ",
"                                                                ",
"                                                                ",
"                                                                ",
"                                                                ",
"                                                                "
};
